<svg width="111" height="92" viewBox="0 0 111 92" fill="none" xmlns="http://www.w3.org/2000/svg">
<g filter="url(#filter0_d_375_130)">
<path fill-rule="evenodd" clip-rule="evenodd" d="M59.3207 15.3066L59.6141 15.1559C62.2041 13.8256 63.9377 11.2779 63.9377 8.36983C63.9377 6.28684 63.0247 4.29034 61.4017 2.81925C59.779 1.34835 57.5794 0.523115 55.2874 0.523115C52.9954 0.523115 50.7958 1.34835 49.1731 2.81925C47.5501 4.29034 46.6371 6.28684 46.6371 8.36983C46.6371 11.2779 48.3707 13.8256 50.9607 15.1559L51.2541 15.3066V21.4477H46.0533C37.6387 21.4477 29.5674 24.4775 23.6153 29.8725C17.663 35.2677 14.3178 42.5865 14.3178 50.219V50.7421H9.11704C8.04951 50.7421 7.02435 51.1265 6.26743 51.8125C5.5103 52.4988 5.08376 53.4308 5.08376 54.4039V66.9587C5.08376 67.9318 5.5103 68.8638 6.26743 69.5501C7.02434 70.2362 8.04951 70.6205 9.11704 70.6205H14.3178V75.3285C14.3178 77.4115 15.2308 79.408 16.8538 80.8791C18.4766 82.35 20.6761 83.1752 22.9681 83.1752H87.6067C89.8987 83.1752 92.0982 82.35 93.721 80.8791C95.344 79.408 96.257 77.4115 96.257 75.3285V70.6205H101.458C102.525 70.6205 103.55 70.2362 104.307 69.5501C105.065 68.8638 105.491 67.9318 105.491 66.9587V54.4039C105.491 53.4308 105.065 52.4988 104.307 51.8125C103.55 51.1265 102.525 50.7421 101.458 50.7421H96.257V50.219C96.257 42.5865 92.9118 35.2677 86.9595 29.8725C81.0074 24.4775 72.9361 21.4477 64.5215 21.4477H59.3207V15.3066ZM59.9044 15.6097C62.6747 14.1869 64.5215 11.4667 64.5215 8.36983C64.5215 6.15002 63.5486 4.02112 61.8169 2.45147C60.0852 0.881819 57.7364 0 55.2874 0C52.8384 0 50.4897 0.881819 48.7579 2.45147C47.0262 4.02112 46.0533 6.15002 46.0533 8.36983C46.0533 11.4667 47.9001 14.1869 50.6704 15.6097V20.9246H46.0533C37.4817 20.9246 29.2612 24.011 23.2002 29.5047C17.1391 34.9985 13.7341 42.4496 13.7341 50.219H9.11704C7.89252 50.219 6.71816 50.6599 5.8523 51.4447C4.98644 52.2296 4.5 53.294 4.5 54.4039V66.9587C4.5 68.0686 4.98644 69.133 5.8523 69.9179C6.71816 70.7027 7.89252 71.1436 9.11704 71.1436H13.7341V75.3285C13.7341 77.5483 14.7069 79.6772 16.4387 81.2469C18.1704 82.8165 20.5191 83.6984 22.9681 83.6984H87.6067C90.0557 83.6984 92.4044 82.8165 94.1361 81.2469C95.8679 79.6772 96.8407 77.5483 96.8407 75.3285V71.1436H101.458C102.682 71.1436 103.857 70.7027 104.723 69.9179C105.588 69.133 106.075 68.0686 106.075 66.9587V54.4039C106.075 53.294 105.588 52.2296 104.723 51.4447C103.857 50.6599 102.682 50.219 101.458 50.219H96.8407C96.8407 42.4496 93.4357 34.9985 87.3746 29.5047C81.3136 24.011 73.0931 20.9246 64.5215 20.9246H59.9044V15.6097ZM25.9338 48.7306C28.2074 46.6698 31.2925 45.511 34.5107 45.511C37.729 45.511 40.8141 46.6698 43.0877 48.7306C45.3611 50.7913 46.6371 53.5848 46.6371 56.4964C46.6371 59.408 45.3611 62.2015 43.0877 64.2621C40.8141 66.3229 37.729 67.4818 34.5107 67.4818C31.2925 67.4818 28.2074 66.3229 25.9338 64.2621C23.6604 62.2015 22.3844 59.408 22.3844 56.4964C22.3844 53.5848 23.6604 50.7913 25.9338 48.7306ZM67.4871 48.7306C69.7607 46.6698 72.8458 45.511 76.0641 45.511C79.2823 45.511 82.3674 46.6698 84.641 48.7306C86.9144 50.7913 88.1904 53.5848 88.1904 56.4964C88.1904 59.408 86.9144 62.2015 84.641 64.2621C82.3674 66.3229 79.2823 67.4818 76.0641 67.4818C72.8458 67.4818 69.7607 66.3229 67.4871 64.2621C65.2137 62.2015 63.9377 59.408 63.9377 56.4964C63.9377 53.5848 65.2137 50.7913 67.4871 48.7306ZM26.3489 49.0984C28.5135 47.1364 31.4495 46.0341 34.5107 46.0341C37.572 46.0341 40.5079 47.1364 42.6726 49.0984C44.8372 51.0605 46.0533 53.7216 46.0533 56.4964C46.0533 59.2712 44.8372 61.9323 42.6726 63.8943C40.5079 65.8564 37.572 66.9587 34.5107 66.9587C31.4495 66.9587 28.5135 65.8564 26.3489 63.8943C24.1842 61.9323 22.9681 59.2712 22.9681 56.4964C22.9681 53.7216 24.1842 51.0605 26.3489 49.0984ZM67.9022 49.0984C70.0669 47.1364 73.0028 46.0341 76.0641 46.0341C79.1254 46.0341 82.0613 47.1364 84.2259 49.0984C86.3906 51.0605 87.6067 53.7216 87.6067 56.4964C87.6067 59.2712 86.3906 61.9323 84.2259 63.8943C82.0613 65.8564 79.1254 66.9587 76.0641 66.9587C73.0028 66.9587 70.0669 65.8564 67.9022 63.8943C65.7376 61.9323 64.5215 59.2712 64.5215 56.4964C64.5215 53.7216 65.7376 51.0605 67.9022 49.0984Z" fill="#FEFDEC"/>
</g>
<defs>
<filter id="filter0_d_375_130" x="0.5" y="0" width="109.575" height="91.6982" filterUnits="userSpaceOnUse" color-interpolation-filters="sRGB">
<feFlood flood-opacity="0" result="BackgroundImageFix"/>
<feColorMatrix in="SourceAlpha" type="matrix" values="0 0 0 0 0 0 0 0 0 0 0 0 0 0 0 0 0 0 127 0" result="hardAlpha"/>
<feOffset dy="4"/>
<feGaussianBlur stdDeviation="2"/>
<feColorMatrix type="matrix" values="0 0 0 0 0.958333 0 0 0 0 0.785993 0 0 0 0 0.62691 0 0 0 1 0"/>
<feBlend mode="normal" in2="BackgroundImageFix" result="effect1_dropShadow_375_130"/>
<feBlend mode="normal" in="SourceGraphic" in2="effect1_dropShadow_375_130" result="shape"/>
</filter>
</defs>
</svg>
