<svg width="111" height="92" viewBox="0 0 111 92" fill="none" xmlns="http://www.w3.org/2000/svg">
<g filter="url(#filter0_d_370_139)">
<path d="M55.2874 0C57.7364 0 60.0852 0.881819 61.8169 2.45147C63.5486 4.02112 64.5215 6.15002 64.5215 8.36983C64.5215 11.4667 62.6747 14.1869 59.9044 15.6097V20.9246H64.5215C73.0931 20.9246 81.3136 24.011 87.3746 29.5047C93.4357 34.9985 96.8407 42.4496 96.8407 50.219H101.458C102.682 50.219 103.857 50.6599 104.723 51.4447C105.588 52.2296 106.075 53.294 106.075 54.4039V66.9587C106.075 68.0686 105.588 69.133 104.723 69.9179C103.857 70.7027 102.682 71.1436 101.458 71.1436H96.8407V75.3285C96.8407 77.5483 95.8679 79.6772 94.1361 81.2469C92.4044 82.8165 90.0557 83.6984 87.6067 83.6984H22.9681C20.5191 83.6984 18.1704 82.8165 16.4387 81.2469C14.7069 79.6772 13.7341 77.5483 13.7341 75.3285V71.1436H9.11704C7.89252 71.1436 6.71816 70.7027 5.8523 69.9179C4.98644 69.133 4.5 68.0686 4.5 66.9587V54.4039C4.5 53.294 4.98644 52.2296 5.8523 51.4447C6.71816 50.6599 7.89252 50.219 9.11704 50.219H13.7341C13.7341 42.4496 17.1391 34.9985 23.2002 29.5047C29.2612 24.011 37.4817 20.9246 46.0533 20.9246H50.6704V15.6097C47.9001 14.1869 46.0533 11.4667 46.0533 8.36983C46.0533 6.15002 47.0262 4.02112 48.7579 2.45147C50.4897 0.881819 52.8384 0 55.2874 0ZM34.5107 46.0341C31.4495 46.0341 28.5135 47.1364 26.3489 49.0984C24.1842 51.0605 22.9681 53.7216 22.9681 56.4964C22.9681 59.2712 24.1842 61.9323 26.3489 63.8943C28.5135 65.8564 31.4495 66.9587 34.5107 66.9587C37.572 66.9587 40.5079 65.8564 42.6726 63.8943C44.8372 61.9323 46.0533 59.2712 46.0533 56.4964C46.0533 53.7216 44.8372 51.0605 42.6726 49.0984C40.5079 47.1364 37.572 46.0341 34.5107 46.0341ZM76.0641 46.0341C73.0028 46.0341 70.0669 47.1364 67.9022 49.0984C65.7376 51.0605 64.5215 53.7216 64.5215 56.4964C64.5215 59.2712 65.7376 61.9323 67.9022 63.8943C70.0669 65.8564 73.0028 66.9587 76.0641 66.9587C79.1254 66.9587 82.0613 65.8564 84.2259 63.8943C86.3906 61.9323 87.6067 59.2712 87.6067 56.4964C87.6067 53.7216 86.3906 51.0605 84.2259 49.0984C82.0613 47.1364 79.1254 46.0341 76.0641 46.0341Z" fill="url(#paint0_linear_370_139)"/>
</g>
<defs>
<filter id="filter0_d_370_139" x="0.5" y="0" width="109.575" height="91.6982" filterUnits="userSpaceOnUse" color-interpolation-filters="sRGB">
<feFlood flood-opacity="0" result="BackgroundImageFix"/>
<feColorMatrix in="SourceAlpha" type="matrix" values="0 0 0 0 0 0 0 0 0 0 0 0 0 0 0 0 0 0 127 0" result="hardAlpha"/>
<feOffset dy="4"/>
<feGaussianBlur stdDeviation="2"/>
<feColorMatrix type="matrix" values="0 0 0 0 0.958333 0 0 0 0 0.785993 0 0 0 0 0.62691 0 0 0 1 0"/>
<feBlend mode="normal" in2="BackgroundImageFix" result="effect1_dropShadow_370_139"/>
<feBlend mode="normal" in="SourceGraphic" in2="effect1_dropShadow_370_139" result="shape"/>
</filter>
<linearGradient id="paint0_linear_370_139" x1="55.2874" y1="0" x2="55.2874" y2="83.6984" gradientUnits="userSpaceOnUse">
<stop stop-color="#F1C7F8"/>
<stop offset="0.0833333" stop-color="#FF8CCA"/>
<stop offset="0.244792" stop-color="#FAB15C"/>
<stop offset="0.395833" stop-color="#FFDD2D"/>
<stop offset="0.614583" stop-color="#B6E876"/>
<stop offset="0.828125" stop-color="#4FCDA4"/>
<stop offset="1" stop-color="#0BD3D3"/>
</linearGradient>
</defs>
</svg>
