<svg width="52" height="52" viewBox="0 0 52 52" fill="none" xmlns="http://www.w3.org/2000/svg">
<g filter="url(#filter0_d_148_170)">
<path d="M48 22C48 27.8348 45.6822 33.4305 41.5564 37.5564C37.4305 41.6822 31.8348 44 26 44C20.1652 44 14.5695 41.6822 10.4437 37.5564C6.31785 33.4305 4 27.8348 4 22C4 16.1652 6.31785 10.5695 10.4437 6.44365C14.5695 2.31785 20.1652 0 26 0C31.8348 0 37.4305 2.31785 41.5564 6.44365C45.6822 10.5695 48 16.1652 48 22ZM18.7235 12.7765C18.4653 12.5183 18.1151 12.3733 17.75 12.3733C17.3849 12.3733 17.0347 12.5183 16.7765 12.7765C16.5183 13.0347 16.3733 13.3849 16.3733 13.75C16.3733 14.1151 16.5183 14.4653 16.7765 14.7235L24.0557 22L16.7765 29.2765C16.6487 29.4043 16.5472 29.5561 16.4781 29.7231C16.4089 29.8902 16.3733 30.0692 16.3733 30.25C16.3733 30.4308 16.4089 30.6098 16.4781 30.7769C16.5472 30.9439 16.6487 31.0957 16.7765 31.2235C17.0347 31.4817 17.3849 31.6267 17.75 31.6267C17.9308 31.6267 18.1098 31.5911 18.2769 31.5219C18.4439 31.4528 18.5957 31.3513 18.7235 31.2235L26 23.9443L33.2765 31.2235C33.4043 31.3513 33.5561 31.4528 33.7231 31.5219C33.8902 31.5911 34.0692 31.6267 34.25 31.6267C34.4308 31.6267 34.6098 31.5911 34.7769 31.5219C34.9439 31.4528 35.0957 31.3513 35.2235 31.2235C35.3513 31.0957 35.4528 30.9439 35.5219 30.7769C35.5911 30.6098 35.6267 30.4308 35.6267 30.25C35.6267 30.0692 35.5911 29.8902 35.5219 29.7231C35.4528 29.5561 35.3513 29.4043 35.2235 29.2765L27.9443 22L35.2235 14.7235C35.3513 14.5957 35.4528 14.4439 35.5219 14.2769C35.5911 14.1098 35.6267 13.9308 35.6267 13.75C35.6267 13.5692 35.5911 13.3902 35.5219 13.2231C35.4528 13.0561 35.3513 12.9043 35.2235 12.7765C35.0957 12.6487 34.9439 12.5472 34.7769 12.4781C34.6098 12.4089 34.4308 12.3733 34.25 12.3733C34.0692 12.3733 33.8902 12.4089 33.7231 12.4781C33.5561 12.5472 33.4043 12.6487 33.2765 12.7765L26 20.0557L18.7235 12.7765Z" fill="#DB4437"/>
</g>
<defs>
<filter id="filter0_d_148_170" x="0" y="0" width="52" height="52" filterUnits="userSpaceOnUse" color-interpolation-filters="sRGB">
<feFlood flood-opacity="0" result="BackgroundImageFix"/>
<feColorMatrix in="SourceAlpha" type="matrix" values="0 0 0 0 0 0 0 0 0 0 0 0 0 0 0 0 0 0 127 0" result="hardAlpha"/>
<feOffset dy="4"/>
<feGaussianBlur stdDeviation="2"/>
<feColorMatrix type="matrix" values="0 0 0 0 0 0 0 0 0 0 0 0 0 0 0 0 0 0 0.25 0"/>
<feBlend mode="normal" in2="BackgroundImageFix" result="effect1_dropShadow_148_170"/>
<feBlend mode="normal" in="SourceGraphic" in2="effect1_dropShadow_148_170" result="shape"/>
</filter>
</defs>
</svg>
