<svg width="182" height="168" viewBox="0 0 182 168" fill="none" xmlns="http://www.w3.org/2000/svg">
<g filter="url(#filter0_d_220_2)">
<path fill-rule="evenodd" clip-rule="evenodd" d="M97.9091 29.2606L98.4118 28.9724C102.848 26.4294 105.818 21.5592 105.818 16C105.818 12.0181 104.254 8.20154 101.474 5.38935C98.6942 2.57754 94.9263 1 91 1C87.0737 1 83.3058 2.57754 80.526 5.38935C77.7458 8.20154 76.1818 12.0181 76.1818 16C76.1818 21.5592 79.1516 26.4294 83.5882 28.9724L84.0909 29.2606V41H75.1818C60.7674 41 46.941 46.7918 36.7449 57.1051C26.5485 67.4187 20.8182 81.4094 20.8182 96V97H11.9091C10.0804 97 8.32426 97.7347 7.02765 99.0462C5.73066 100.358 5 102.14 5 104V128C5 129.86 5.73066 131.642 7.02765 132.954C8.32426 134.265 10.0804 135 11.9091 135H20.8182V144C20.8182 147.982 22.3821 151.798 25.1624 154.611C27.9422 157.422 31.7101 159 35.6364 159H146.364C150.29 159 154.058 157.422 156.838 154.611C159.618 151.798 161.182 147.982 161.182 144V135H170.091C171.92 135 173.676 134.265 174.972 132.954C176.269 131.642 177 129.86 177 128V104C177 102.14 176.269 100.358 174.972 99.0462C173.676 97.7347 171.92 97 170.091 97H161.182V96C161.182 81.4094 155.451 67.4187 145.255 57.1051C135.059 46.7918 121.233 41 106.818 41H97.9091V29.2606ZM98.9091 29.84C103.655 27.12 106.818 21.92 106.818 16C106.818 11.7565 105.152 7.68687 102.185 4.68629C99.2187 1.68571 95.1952 0 91 0C86.8048 0 82.7813 1.68571 79.8149 4.68629C76.8484 7.68687 75.1818 11.7565 75.1818 16C75.1818 21.92 78.3455 27.12 83.0909 29.84V40H75.1818C60.4985 40 46.4165 45.9 36.0338 56.402C25.6511 66.9041 19.8182 81.1479 19.8182 96H11.9091C9.81147 96 7.79976 96.8428 6.31652 98.3431C4.83328 99.8434 4 101.878 4 104V128C4 130.122 4.83328 132.157 6.31652 133.657C7.79976 135.157 9.81147 136 11.9091 136H19.8182V144C19.8182 148.243 21.4847 152.313 24.4512 155.314C27.4177 158.314 31.4411 160 35.6364 160H146.364C150.559 160 154.582 158.314 157.549 155.314C160.515 152.313 162.182 148.243 162.182 144V136H170.091C172.189 136 174.2 135.157 175.684 133.657C177.167 132.157 178 130.122 178 128V104C178 101.878 177.167 99.8434 175.684 98.3431C174.2 96.8428 172.189 96 170.091 96H162.182C162.182 81.1479 156.349 66.9041 145.966 56.402C135.583 45.9 121.502 40 106.818 40H98.9091V29.84ZM40.7165 93.1548C44.6113 89.2153 49.8961 87 55.4091 87C60.9221 87 66.2069 89.2153 70.1017 93.1548C73.996 97.0939 76.1818 102.434 76.1818 108C76.1818 113.566 73.996 118.906 70.1017 122.845C66.2069 126.785 60.9221 129 55.4091 129C49.8961 129 44.6113 126.785 40.7165 122.845C36.8222 118.906 34.6364 113.566 34.6364 108C34.6364 102.434 36.8222 97.0939 40.7165 93.1548ZM111.898 93.1548C115.793 89.2153 121.078 87 126.591 87C132.104 87 137.389 89.2153 141.283 93.1548C145.178 97.0939 147.364 102.434 147.364 108C147.364 113.566 145.178 118.906 141.283 122.845C137.389 126.785 132.104 129 126.591 129C121.078 129 115.793 126.785 111.898 122.845C108.004 118.906 105.818 113.566 105.818 108C105.818 102.434 108.004 97.0939 111.898 93.1548ZM41.4277 93.8579C45.1358 90.1071 50.165 88 55.4091 88C60.6531 88 65.6824 90.1071 69.3905 93.8579C73.0986 97.6086 75.1818 102.696 75.1818 108C75.1818 113.304 73.0986 118.391 69.3905 122.142C65.6824 125.893 60.6531 128 55.4091 128C50.165 128 45.1358 125.893 41.4277 122.142C37.7196 118.391 35.6364 113.304 35.6364 108C35.6364 102.696 37.7196 97.6086 41.4277 93.8579ZM112.609 93.8579C116.318 90.1071 121.347 88 126.591 88C131.835 88 136.864 90.1071 140.572 93.8579C144.28 97.6086 146.364 102.696 146.364 108C146.364 113.304 144.28 118.391 140.572 122.142C136.864 125.893 131.835 128 126.591 128C121.347 128 116.318 125.893 112.609 122.142C108.901 118.391 106.818 113.304 106.818 108C106.818 102.696 108.901 97.6086 112.609 93.8579Z" fill="white"/>
</g>
<defs>
<filter id="filter0_d_220_2" x="0" y="0" width="182" height="168" filterUnits="userSpaceOnUse" color-interpolation-filters="sRGB">
<feFlood flood-opacity="0" result="BackgroundImageFix"/>
<feColorMatrix in="SourceAlpha" type="matrix" values="0 0 0 0 0 0 0 0 0 0 0 0 0 0 0 0 0 0 127 0" result="hardAlpha"/>
<feOffset dy="4"/>
<feGaussianBlur stdDeviation="2"/>
<feColorMatrix type="matrix" values="0 0 0 0 0.958333 0 0 0 0 0.785993 0 0 0 0 0.62691 0 0 0 1 0"/>
<feBlend mode="normal" in2="BackgroundImageFix" result="effect1_dropShadow_220_2"/>
<feBlend mode="normal" in="SourceGraphic" in2="effect1_dropShadow_220_2" result="shape"/>
</filter>
</defs>
</svg>
