<svg width="87" height="79" viewBox="0 0 87 79" fill="none" xmlns="http://www.w3.org/2000/svg">
<path d="M43.5 0C45.5976 0 47.6093 0.829081 49.0926 2.30485C50.5758 3.78063 51.4091 5.78221 51.4091 7.86927C51.4091 10.7809 49.8273 13.3384 47.4545 14.6762V19.6732H51.4091C58.7508 19.6732 65.7917 22.575 70.9831 27.7402C76.1744 32.9054 79.0909 39.9109 79.0909 47.2156H83.0455C84.0943 47.2156 85.1001 47.6301 85.8418 48.368C86.5834 49.1059 87 50.1067 87 51.1502V62.9541C87 63.9977 86.5834 64.9985 85.8418 65.7363C85.1001 66.4742 84.0943 66.8888 83.0455 66.8888H79.0909V70.8234C79.0909 72.9105 78.2576 74.912 76.7744 76.3878C75.2911 77.8636 73.2794 78.6927 71.1818 78.6927H15.8182C13.7206 78.6927 11.7089 77.8636 10.2256 76.3878C8.74237 74.912 7.90909 72.9105 7.90909 70.8234V66.8888H3.95455C2.90573 66.8888 1.89988 66.4742 1.15826 65.7363C0.416638 64.9985 0 63.9977 0 62.9541V51.1502C0 50.1067 0.416638 49.1059 1.15826 48.368C1.89988 47.6301 2.90573 47.2156 3.95455 47.2156H7.90909C7.90909 39.9109 10.8256 32.9054 16.0169 27.7402C21.2083 22.575 28.2492 19.6732 35.5909 19.6732H39.5455V14.6762C37.1727 13.3384 35.5909 10.7809 35.5909 7.86927C35.5909 5.78221 36.4242 3.78063 37.9074 2.30485C39.3907 0.829081 41.4024 0 43.5 0ZM25.7045 43.281C23.0825 43.281 20.5679 44.3173 18.7138 46.162C16.8598 48.0068 15.8182 50.5087 15.8182 53.1175C15.8182 55.7264 16.8598 58.2283 18.7138 60.0731C20.5679 61.9178 23.0825 62.9541 25.7045 62.9541C28.3266 62.9541 30.8412 61.9178 32.6953 60.0731C34.5493 58.2283 35.5909 55.7264 35.5909 53.1175C35.5909 50.5087 34.5493 48.0068 32.6953 46.162C30.8412 44.3173 28.3266 43.281 25.7045 43.281ZM61.2955 43.281C58.6734 43.281 56.1588 44.3173 54.3047 46.162C52.4507 48.0068 51.4091 50.5087 51.4091 53.1175C51.4091 55.7264 52.4507 58.2283 54.3047 60.0731C56.1588 61.9178 58.6734 62.9541 61.2955 62.9541C63.9175 62.9541 66.4321 61.9178 68.2862 60.0731C70.1402 58.2283 71.1818 55.7264 71.1818 53.1175C71.1818 50.5087 70.1402 48.0068 68.2862 46.162C66.4321 44.3173 63.9175 43.281 61.2955 43.281Z" fill="url(#paint0_linear_376_129)"/>
<defs>
<linearGradient id="paint0_linear_376_129" x1="43.5" y1="0" x2="43.5" y2="78.6927" gradientUnits="userSpaceOnUse">
<stop offset="0.0004" stop-color="white"/>
</linearGradient>
</defs>
</svg>
