<svg width="182" height="168" viewBox="0 0 182 168" fill="none" xmlns="http://www.w3.org/2000/svg">
<g filter="url(#filter0_d_220_3)">
<path d="M91 0C95.1952 0 99.2187 1.68571 102.185 4.68629C105.152 7.68687 106.818 11.7565 106.818 16C106.818 21.92 103.655 27.12 98.9091 29.84V40H106.818C121.502 40 135.583 45.9 145.966 56.402C156.349 66.9041 162.182 81.1479 162.182 96H170.091C172.189 96 174.2 96.8428 175.684 98.3431C177.167 99.8434 178 101.878 178 104V128C178 130.122 177.167 132.157 175.684 133.657C174.2 135.157 172.189 136 170.091 136H162.182V144C162.182 148.243 160.515 152.313 157.549 155.314C154.582 158.314 150.559 160 146.364 160H35.6364C31.4411 160 27.4177 158.314 24.4512 155.314C21.4847 152.313 19.8182 148.243 19.8182 144V136H11.9091C9.81147 136 7.79976 135.157 6.31652 133.657C4.83328 132.157 4 130.122 4 128V104C4 101.878 4.83328 99.8434 6.31652 98.3431C7.79976 96.8428 9.81147 96 11.9091 96H19.8182C19.8182 81.1479 25.6511 66.9041 36.0338 56.402C46.4165 45.9 60.4985 40 75.1818 40H83.0909V29.84C78.3455 27.12 75.1818 21.92 75.1818 16C75.1818 11.7565 76.8484 7.68687 79.8149 4.68629C82.7813 1.68571 86.8048 0 91 0ZM55.4091 88C50.165 88 45.1358 90.1071 41.4277 93.8579C37.7196 97.6086 35.6364 102.696 35.6364 108C35.6364 113.304 37.7196 118.391 41.4277 122.142C45.1358 125.893 50.165 128 55.4091 128C60.6531 128 65.6824 125.893 69.3905 122.142C73.0986 118.391 75.1818 113.304 75.1818 108C75.1818 102.696 73.0986 97.6086 69.3905 93.8579C65.6824 90.1071 60.6531 88 55.4091 88ZM126.591 88C121.347 88 116.318 90.1071 112.609 93.8579C108.901 97.6086 106.818 102.696 106.818 108C106.818 113.304 108.901 118.391 112.609 122.142C116.318 125.893 121.347 128 126.591 128C131.835 128 136.864 125.893 140.572 122.142C144.28 118.391 146.364 113.304 146.364 108C146.364 102.696 144.28 97.6086 140.572 93.8579C136.864 90.1071 131.835 88 126.591 88Z" fill="url(#paint0_linear_220_3)"/>
</g>
<defs>
<filter id="filter0_d_220_3" x="0" y="0" width="182" height="168" filterUnits="userSpaceOnUse" color-interpolation-filters="sRGB">
<feFlood flood-opacity="0" result="BackgroundImageFix"/>
<feColorMatrix in="SourceAlpha" type="matrix" values="0 0 0 0 0 0 0 0 0 0 0 0 0 0 0 0 0 0 127 0" result="hardAlpha"/>
<feOffset dy="4"/>
<feGaussianBlur stdDeviation="2"/>
<feColorMatrix type="matrix" values="0 0 0 0 0.958333 0 0 0 0 0.785993 0 0 0 0 0.62691 0 0 0 1 0"/>
<feBlend mode="normal" in2="BackgroundImageFix" result="effect1_dropShadow_220_3"/>
<feBlend mode="normal" in="SourceGraphic" in2="effect1_dropShadow_220_3" result="shape"/>
</filter>
<linearGradient id="paint0_linear_220_3" x1="91" y1="0" x2="91" y2="160" gradientUnits="userSpaceOnUse">
<stop stop-color="#F82A99"/>
<stop offset="1" stop-color="#F5931F"/>
</linearGradient>
</defs>
</svg>
