<svg width="87" height="79" viewBox="0 0 87 79" fill="none" xmlns="http://www.w3.org/2000/svg">
<path fill-rule="evenodd" clip-rule="evenodd" d="M46.9545 14.3912L47.2059 14.2495C49.4242 12.9988 50.9091 10.6034 50.9091 7.86927C50.9091 5.91085 50.1271 4.03375 48.737 2.65064C47.3471 1.26771 45.4632 0.491829 43.5 0.491829C41.5368 0.491829 39.6529 1.26771 38.263 2.65064C36.8729 4.03375 36.0909 5.91085 36.0909 7.86927C36.0909 10.6034 37.5758 12.9988 39.7941 14.2495L40.0455 14.3912V20.165H35.5909C28.3837 20.165 21.4705 23.0136 16.3725 28.0859C11.2743 33.1585 8.40909 40.0395 8.40909 47.2156V47.7074H3.95455C3.0402 47.7074 2.16213 48.0688 1.51383 48.7138C0.865332 49.359 0.5 50.2353 0.5 51.1502V62.9541C0.5 63.869 0.865332 64.7453 1.51383 65.3906C2.16213 66.0356 3.0402 66.3969 3.95455 66.3969H8.40909V70.8234C8.40909 72.7818 9.19106 74.6589 10.5812 76.042C11.9711 77.425 13.855 78.2008 15.8182 78.2008H71.1818C73.145 78.2008 75.0289 77.425 76.4188 76.042C77.8089 74.6589 78.5909 72.7818 78.5909 70.8234V66.3969H83.0455C83.9598 66.3969 84.8379 66.0356 85.4862 65.3906C86.1347 64.7453 86.5 63.869 86.5 62.9541V51.1502C86.5 50.2353 86.1347 49.359 85.4862 48.7138C84.8379 48.0688 83.9598 47.7074 83.0455 47.7074H78.5909V47.2156C78.5909 40.0395 75.7257 33.1585 70.6275 28.0859C65.5295 23.0136 58.6163 20.165 51.4091 20.165H46.9545V14.3912ZM47.4545 14.6762C49.8273 13.3384 51.4091 10.7809 51.4091 7.86927C51.4091 5.78221 50.5758 3.78063 49.0926 2.30485C47.6093 0.829081 45.5976 0 43.5 0C41.4024 0 39.3907 0.829081 37.9074 2.30485C36.4242 3.78063 35.5909 5.78221 35.5909 7.86927C35.5909 10.7809 37.1727 13.3384 39.5455 14.6762V19.6732H35.5909C28.2492 19.6732 21.2083 22.575 16.0169 27.7402C10.8256 32.9054 7.90909 39.9109 7.90909 47.2156H3.95455C2.90573 47.2156 1.89988 47.6301 1.15826 48.368C0.416638 49.1059 0 50.1067 0 51.1502V62.9541C0 63.9977 0.416638 64.9985 1.15826 65.7363C1.89988 66.4742 2.90573 66.8888 3.95455 66.8888H7.90909V70.8234C7.90909 72.9105 8.74237 74.912 10.2256 76.3878C11.7089 77.8636 13.7206 78.6927 15.8182 78.6927H71.1818C73.2794 78.6927 75.2911 77.8636 76.7744 76.3878C78.2576 74.912 79.0909 72.9105 79.0909 70.8234V66.8888H83.0455C84.0943 66.8888 85.1001 66.4742 85.8418 65.7363C86.5834 64.9985 87 63.9977 87 62.9541V51.1502C87 50.1067 86.5834 49.1059 85.8418 48.368C85.1001 47.6301 84.0943 47.2156 83.0455 47.2156H79.0909C79.0909 39.9109 76.1744 32.9054 70.9831 27.7402C65.7917 22.575 58.7508 19.6732 51.4091 19.6732H47.4545V14.6762ZM18.3583 45.8163C20.3056 43.8787 22.9481 42.7891 25.7045 42.7891C28.461 42.7891 31.1035 43.8787 33.0508 45.8163C34.998 47.7536 36.0909 50.3801 36.0909 53.1175C36.0909 55.855 34.998 58.4815 33.0508 60.4188C31.1035 62.3564 28.461 63.446 25.7045 63.446C22.9481 63.446 20.3056 62.3564 18.3583 60.4188C16.4111 58.4815 15.3182 55.855 15.3182 53.1175C15.3182 50.3801 16.4111 47.7536 18.3583 45.8163ZM53.9492 45.8163C55.8965 43.8787 58.539 42.7891 61.2955 42.7891C64.0519 42.7891 66.6944 43.8787 68.6417 45.8163C70.5889 47.7536 71.6818 50.3801 71.6818 53.1175C71.6818 55.855 70.5889 58.4815 68.6417 60.4188C66.6944 62.3564 64.0519 63.446 61.2955 63.446C58.539 63.446 55.8965 62.3564 53.9492 60.4188C52.002 58.4815 50.9091 55.855 50.9091 53.1175C50.9091 50.3801 52.002 47.7536 53.9492 45.8163ZM18.7138 46.162C20.5679 44.3173 23.0825 43.281 25.7045 43.281C28.3266 43.281 30.8412 44.3173 32.6953 46.162C34.5493 48.0068 35.5909 50.5087 35.5909 53.1175C35.5909 55.7264 34.5493 58.2283 32.6953 60.0731C30.8412 61.9178 28.3266 62.9541 25.7045 62.9541C23.0825 62.9541 20.5679 61.9178 18.7138 60.0731C16.8598 58.2283 15.8182 55.7264 15.8182 53.1175C15.8182 50.5087 16.8598 48.0068 18.7138 46.162ZM54.3047 46.162C56.1588 44.3173 58.6734 43.281 61.2955 43.281C63.9175 43.281 66.4321 44.3173 68.2862 46.162C70.1402 48.0068 71.1818 50.5087 71.1818 53.1175C71.1818 55.7264 70.1402 58.2283 68.2862 60.0731C66.4321 61.9178 63.9175 62.9541 61.2955 62.9541C58.6734 62.9541 56.1588 61.9178 54.3047 60.0731C52.4507 58.2283 51.4091 55.7264 51.4091 53.1175C51.4091 50.5087 52.4507 48.0068 54.3047 46.162Z" fill="white"/>
</svg>
